<?xml version="1.0" standalone="no"?><!DOCTYPE svg PUBLIC "-//W3C//DTD SVG 1.1//EN" "http://www.w3.org/Graphics/SVG/1.1/DTD/svg11.dtd"><svg t="1613836214231" class="icon" viewBox="0 0 1024 1024" version="1.1" xmlns="http://www.w3.org/2000/svg" p-id="5984" xmlns:xlink="http://www.w3.org/1999/xlink" width="200" height="200"><defs><style type="text/css"></style></defs><path d="M512 512m-508 0a508 508 0 1 0 1016 0 508 508 0 1 0-1016 0Z" fill="#FFD778" p-id="5985"></path><path d="M127.2 395.6h52.4v186.8h91.6v43.6h-144V395.6zM586.4 626.4L512.4 396h57.2l28 97.6c8 27.2 15.2 53.6 20.4 82.4h1.2c6-27.6 13.2-55.2 20.8-81.2l29.6-98.4h55.2l-77.6 230.4h-60.8zM886.8 528.8h-84.8v54.8h94.8v42.8h-147.2V395.6H892v42.8h-90v48h84.8v42.4z" fill="#1AA386" p-id="5986"></path><path d="M504.4 467.2c0-39.2-32-71.2-71.2-71.2-23.2 0-43.6 11.2-56.8 28-13.2-17.2-33.6-28-56.8-28-39.2 0-71.2 32-71.2 71.2 0 17.6 6.4 34 17.2 46.4l110.8 114.8 110.8-114.8c10.4-12.4 17.2-28.8 17.2-46.4z" fill="#E65336" p-id="5987"></path><path d="M394.8 448c12.4-16.4 32.4-27.2 54.4-27.2 6 0 11.6 0.8 17.2 2-9.6-6.4-21.6-10-34-10-19.6 0-37.2 9.2-48.8 23.6 4.4 3.6 8 7.2 11.2 11.6zM327.2 420.8c14.8 0 28.4 4.8 39.6 12.8-11.2-12.8-27.6-20.8-46-20.8-34.4 0-62 28-62 62 0 2.4 0 4.8 0.4 6.8 3.2-34 32.4-60.8 68-60.8z" fill="#FFFFFF" p-id="5988"></path></svg>