<?xml version="1.0" encoding="UTF-8" ?>
<!DOCTYPE svg PUBLIC "-//W3C//DTD SVG 1.1//EN" "http://www.w3.org/Graphics/SVG/1.1/DTD/svg11.dtd">
<svg width="920pt" height="920pt" viewBox="0 0 920 920" version="1.1" xmlns="http://www.w3.org/2000/svg">
<g id="#ffffffff">
<path fill="#ffffff" opacity="1.00" d=" M 0.00 0.00 L 917.87 0.00 C 917.68 13.21 918.29 26.45 917.49 39.64 L 917.66 39.46 L 917.70 40.45 C 915.66 40.29 912.98 38.61 912.05 41.34 C 909.17 41.58 906.11 41.15 903.46 42.47 C 900.69 43.91 897.36 43.19 894.60 44.64 C 892.07 45.86 889.09 45.15 886.57 46.32 C 882.47 48.24 877.87 48.51 873.44 48.78 C 876.00 49.08 878.60 49.36 881.18 49.68 C 875.92 49.23 870.66 49.79 865.75 51.76 C 859.44 52.77 853.60 55.51 847.31 56.61 C 844.61 57.77 841.85 58.73 838.87 58.62 C 838.25 61.53 834.66 60.05 832.54 60.50 L 832.47 61.54 C 830.43 61.55 828.23 61.41 826.91 63.27 C 821.97 63.48 817.76 66.53 812.82 66.68 C 812.39 67.06 811.52 67.81 811.09 68.18 C 808.34 68.54 805.70 69.44 802.97 69.86 C 802.62 70.24 801.91 71.01 801.55 71.39 C 799.51 71.70 797.50 72.09 795.49 72.51 L 795.40 73.39 C 793.22 73.76 791.06 74.22 788.93 74.72 C 788.58 75.11 787.89 75.88 787.55 76.26 C 781.03 77.00 775.32 80.46 768.99 81.88 C 768.59 82.24 767.79 82.97 767.39 83.33 C 764.64 84.09 761.81 84.58 758.96 84.64 C 760.54 84.94 762.13 85.25 763.73 85.59 C 762.45 85.58 759.90 85.55 758.63 85.54 C 757.84 86.20 757.07 86.87 756.30 87.53 C 755.66 87.54 754.37 87.57 753.73 87.58 C 752.94 88.17 752.16 88.77 751.38 89.36 C 746.32 89.38 742.76 93.78 737.77 93.75 C 736.97 94.32 736.18 94.90 735.40 95.49 C 734.76 95.53 733.48 95.61 732.84 95.65 C 732.45 96.11 731.68 97.04 731.29 97.50 C 730.02 97.54 728.77 97.57 727.52 97.61 C 727.52 98.04 727.51 98.89 727.51 99.32 C 725.16 99.75 722.83 100.23 720.51 100.70 C 720.49 101.06 720.44 101.79 720.42 102.16 C 716.01 102.41 712.54 105.33 708.46 106.60 C 706.55 107.19 704.88 108.31 703.28 109.47 C 702.01 109.54 700.75 109.61 699.50 109.67 C 699.52 110.13 699.56 111.05 699.58 111.50 C 698.19 111.53 696.81 111.56 695.44 111.60 C 695.47 112.03 695.52 112.89 695.54 113.32 C 690.61 112.91 687.58 117.51 682.93 117.84 C 682.58 118.20 681.87 118.92 681.51 119.28 C 678.17 120.03 675.09 121.53 672.29 123.48 C 671.61 123.52 670.23 123.61 669.55 123.66 C 669.53 124.08 669.50 124.92 669.48 125.34 C 665.74 125.38 662.98 128.13 659.71 129.50 C 657.40 130.49 655.20 131.73 653.23 133.28 C 652.60 133.39 651.34 133.60 650.71 133.71 C 648.31 135.49 645.45 136.43 642.93 137.99 C 641.07 138.73 639.17 139.50 637.92 141.13 C 634.90 142.07 632.07 143.52 629.49 145.33 L 629.40 145.42 C 625.03 145.01 621.69 148.14 618.02 149.93 C 602.98 158.01 588.42 166.89 573.77 175.63 C 545.64 193.64 517.61 211.89 490.92 232.00 C 457.47 256.42 426.19 283.64 395.81 311.71 C 387.76 318.97 380.14 326.71 372.67 334.56 L 372.44 336.36 C 364.08 345.33 354.80 353.46 347.02 362.96 C 341.74 367.73 337.55 373.51 332.51 378.49 C 307.96 405.87 284.90 434.60 262.97 464.09 C 259.28 465.53 257.70 469.30 255.52 472.30 C 206.79 540.11 165.96 613.60 134.14 690.81 L 135.29 692.73 C 135.40 692.91 135.62 693.27 135.73 693.45 C 135.19 693.45 134.13 693.45 133.59 693.46 C 133.56 694.14 133.49 695.51 133.45 696.19 C 132.20 697.93 131.47 699.94 131.28 702.09 C 130.88 702.53 130.08 703.41 129.68 703.86 C 129.59 704.91 129.50 705.98 129.41 707.05 C 127.59 707.47 127.87 709.43 127.39 710.76 C 126.27 715.09 123.22 718.87 123.38 723.53 C 122.94 723.52 122.08 723.51 121.65 723.50 C 121.59 724.77 121.54 726.06 121.49 727.35 C 120.88 728.14 120.27 728.94 119.67 729.75 C 119.57 731.10 119.45 732.46 119.33 733.83 C 117.66 735.04 117.43 737.00 117.28 738.93 C 114.96 742.27 114.13 746.47 113.27 750.40 C 112.68 751.22 112.08 752.05 111.50 752.89 C 108.26 757.37 107.51 762.98 105.55 768.04 C 103.48 773.42 102.06 779.01 100.42 784.53 C 91.68 810.72 85.33 837.62 78.67 864.38 C 74.98 882.89 70.50 901.31 67.80 920.00 L 0.00 920.00 L 0.00 0.00 Z" />
<path fill="#ffffff" opacity="1.00" d=" M 864.86 619.60 C 882.06 609.97 899.51 600.67 917.68 592.98 C 918.12 642.98 917.75 692.99 917.87 742.99 C 917.92 801.99 917.78 861.00 917.94 920.00 L 614.14 920.00 C 615.76 913.39 618.90 907.29 621.16 900.89 C 665.02 791.22 743.74 695.64 843.64 632.50 C 844.91 631.60 846.15 630.65 847.41 629.73 C 853.44 626.75 858.93 622.79 864.86 619.60 Z" />
</g>
<g id="#72ae91ff">
<path fill="#72ae91" opacity="1.00" d=" M 917.87 0.00 L 920.00 0.00 L 920.00 36.94 C 919.42 37.57 918.25 38.83 917.66 39.46 L 917.49 39.64 C 918.29 26.45 917.68 13.21 917.87 0.00 Z" />
<path fill="#72ae91" opacity="1.00" d=" M 896.36 334.36 C 903.73 332.27 911.06 330.04 918.28 327.48 C 918.27 328.37 918.24 330.16 918.22 331.06 C 918.09 331.14 917.81 331.30 917.68 331.39 C 904.14 335.25 890.79 339.66 877.50 344.29 C 868.74 346.74 860.59 350.78 852.03 353.78 C 840.53 358.27 828.97 362.60 817.80 367.88 C 793.65 378.07 770.45 390.35 747.56 403.08 C 738.61 408.62 729.06 413.17 720.53 419.38 C 707.13 427.68 693.91 436.29 680.86 445.14 C 669.33 453.48 658.01 462.10 646.73 470.77 C 626.25 487.51 605.55 504.09 586.97 522.98 C 577.57 531.21 568.66 540.01 560.42 549.40 C 553.58 555.89 547.74 563.32 541.02 569.93 C 529.74 583.68 517.58 596.73 507.01 611.07 C 500.87 618.67 494.55 626.18 489.45 634.54 C 483.93 641.50 479.47 649.23 473.94 656.17 C 456.24 683.25 439.20 710.86 424.92 739.93 C 415.88 756.71 407.80 774.00 400.50 791.61 C 393.91 806.70 388.04 822.13 383.58 838.00 C 383.11 840.13 381.92 841.95 380.05 843.12 C 379.73 841.41 379.06 839.70 379.78 838.03 C 385.06 822.18 389.66 806.05 396.88 790.93 C 404.90 771.63 414.20 752.90 423.39 734.14 C 428.18 726.17 432.19 717.78 436.80 709.73 C 441.20 703.03 444.34 695.59 449.03 689.07 C 459.21 672.19 470.16 655.80 481.55 639.72 C 486.78 634.06 490.13 627.02 495.06 621.12 C 507.18 605.04 519.84 589.37 533.19 574.29 C 538.25 567.69 544.12 561.80 549.96 555.90 C 557.12 548.41 564.14 540.76 571.48 533.44 C 578.77 527.07 584.83 519.41 592.29 513.23 C 596.62 509.60 600.39 505.36 604.74 501.77 C 611.35 496.43 617.88 490.99 624.04 485.14 C 628.98 481.42 633.61 477.32 638.34 473.34 C 655.05 460.68 671.57 447.72 689.07 436.15 C 695.81 432.28 701.67 427.09 708.44 423.26 C 725.56 412.10 743.39 402.11 761.20 392.11 C 781.22 381.95 801.06 371.34 821.86 362.82 C 846.11 351.90 871.17 342.88 896.36 334.36 Z" />
<path fill="#72ae91" opacity="1.00" d=" M 918.64 592.66 C 918.98 592.56 919.66 592.37 920.00 592.28 L 920.00 920.00 L 917.94 920.00 C 917.78 861.00 917.92 801.99 917.87 742.99 C 917.75 692.99 918.12 642.98 917.68 592.98 C 917.92 592.90 918.40 592.74 918.64 592.66 Z" />
<path fill="#72ae91" opacity="1.00" d=" M 376.12 850.82 C 376.90 848.25 376.90 844.84 379.83 843.72 C 380.12 845.80 380.69 847.97 379.88 850.03 C 377.91 856.43 376.57 863.00 374.89 869.48 C 371.88 879.41 370.23 889.68 368.15 899.84 C 367.19 906.52 364.81 913.18 365.80 920.00 L 361.06 920.00 C 362.59 911.53 364.28 903.09 365.59 894.59 C 367.66 884.00 370.76 873.63 372.58 862.99 C 373.42 858.84 375.24 854.96 376.12 850.82 Z" />
</g>
<g id="#734f3eff">
<path fill="#734f3e" opacity="1.00" d=" M 917.66 39.46 C 918.25 38.83 919.42 37.57 920.00 36.94 L 920.00 329.95 C 919.56 330.22 918.67 330.78 918.22 331.06 C 918.24 330.16 918.27 328.37 918.28 327.48 C 918.24 309.41 918.16 291.34 918.34 273.27 C 918.20 249.61 918.42 225.94 918.23 202.28 C 918.22 201.77 918.20 200.76 918.19 200.25 C 918.09 177.30 918.36 154.35 918.05 131.41 C 917.53 124.95 918.42 118.49 918.17 112.02 C 917.93 88.16 918.68 64.29 917.70 40.45 L 917.66 39.46 Z" />
<path fill="#734f3e" opacity="1.00" d=" M 918.42 435.98 C 918.54 430.28 917.82 424.38 920.00 418.95 L 920.00 592.28 C 919.66 592.37 918.98 592.56 918.64 592.66 C 917.13 588.21 918.40 583.57 918.08 579.02 C 917.11 562.35 918.82 545.67 917.98 529.01 C 917.64 522.66 917.75 516.30 918.14 509.96 C 918.47 505.39 917.68 500.82 918.06 496.25 C 918.72 490.18 918.37 484.08 918.42 477.99 C 918.45 463.99 918.43 449.98 918.42 435.98 Z" />
</g>
<g id="#fb554fff">
<path fill="#fb554f" opacity="1.00" d=" M 903.46 42.47 C 906.11 41.15 909.17 41.58 912.05 41.34 C 912.98 38.61 915.66 40.29 917.70 40.45 C 918.68 64.29 917.93 88.16 918.17 112.02 C 918.42 118.49 917.53 124.95 918.05 131.41 C 911.17 130.84 904.50 132.90 897.93 134.64 C 877.17 140.23 856.40 145.79 835.87 152.19 C 827.13 155.69 817.90 157.73 809.22 161.39 C 790.94 167.77 772.99 175.04 755.04 182.30 C 693.85 208.58 634.69 240.01 579.93 278.02 C 565.50 287.42 551.71 297.75 538.00 308.14 C 518.79 322.78 500.04 338.04 481.98 354.07 C 475.07 361.49 466.97 367.64 459.92 374.92 C 456.30 378.69 452.00 381.73 448.40 385.53 C 439.23 394.95 429.64 403.97 420.62 413.54 C 414.80 418.43 410.41 424.68 405.00 429.98 C 398.74 437.03 392.31 443.94 386.31 451.23 C 380.60 456.53 375.87 462.72 370.89 468.68 C 364.30 478.08 356.45 486.51 349.76 495.85 C 335.51 513.50 322.85 532.34 309.95 550.98 C 301.89 563.04 294.40 575.46 286.46 587.60 C 270.61 614.86 254.66 642.15 241.64 670.91 C 235.91 681.14 231.49 692.03 226.48 702.62 C 213.16 733.16 200.95 764.21 190.60 795.89 C 187.41 805.20 185.18 814.81 181.78 824.06 C 173.65 851.36 166.70 879.04 161.10 906.98 C 160.05 911.24 159.31 915.59 159.36 920.00 L 70.77 920.00 C 71.45 908.86 75.02 898.11 76.49 887.06 C 78.92 878.00 80.01 868.65 82.69 859.67 C 85.27 848.81 87.84 837.94 90.99 827.24 C 93.19 817.29 96.14 807.53 99.22 797.84 C 102.53 786.12 106.40 774.58 110.09 762.99 C 110.99 759.76 113.86 756.11 111.50 752.89 C 112.08 752.05 112.68 751.22 113.27 750.40 C 114.13 746.47 114.96 742.27 117.28 738.93 C 117.43 737.00 117.66 735.04 119.33 733.83 C 119.45 732.46 119.57 731.10 119.67 729.75 C 120.27 728.94 120.88 728.14 121.49 727.35 C 121.54 726.06 121.59 724.77 121.65 723.50 C 122.08 723.51 122.94 723.52 123.38 723.53 C 123.22 718.87 126.27 715.09 127.39 710.76 C 127.87 709.43 127.59 707.47 129.41 707.05 C 129.50 705.98 129.59 704.91 129.68 703.86 C 130.08 703.41 130.88 702.53 131.28 702.09 C 131.47 699.94 132.20 697.93 133.45 696.19 C 133.49 695.51 133.56 694.14 133.59 693.46 C 134.13 693.45 135.19 693.45 135.73 693.45 C 135.62 693.27 135.40 692.91 135.29 692.73 C 138.58 689.39 139.63 684.75 141.50 680.61 C 153.36 652.71 166.51 625.37 180.63 598.55 C 188.79 584.08 196.32 569.25 204.99 555.07 C 221.36 527.47 238.89 500.58 257.36 474.35 C 259.56 471.13 262.62 468.19 262.97 464.09 C 284.90 434.60 307.96 405.87 332.51 378.49 C 337.55 373.51 341.74 367.73 347.02 362.96 C 354.80 353.46 364.08 345.33 372.44 336.36 C 374.05 335.84 375.80 335.37 376.97 334.05 C 382.96 328.01 388.94 321.96 395.10 316.11 C 401.23 311.28 406.18 305.16 412.35 300.37 C 475.55 242.83 545.38 192.50 620.42 151.56 C 623.61 149.83 627.17 148.45 629.40 145.42 L 629.49 145.33 C 632.07 143.52 634.90 142.07 637.92 141.13 C 639.17 139.50 641.07 138.73 642.93 137.99 C 645.45 136.43 648.31 135.49 650.71 133.71 C 651.34 133.60 652.60 133.39 653.23 133.28 C 655.20 131.73 657.40 130.49 659.71 129.50 C 662.98 128.13 665.74 125.38 669.48 125.34 C 669.50 124.92 669.53 124.08 669.55 123.66 C 670.23 123.61 671.61 123.52 672.29 123.48 C 675.09 121.53 678.17 120.03 681.51 119.28 C 681.87 118.92 682.58 118.20 682.93 117.84 C 687.58 117.51 690.61 112.91 695.54 113.32 C 695.52 112.89 695.47 112.03 695.44 111.60 C 696.81 111.56 698.19 111.53 699.58 111.50 C 699.56 111.05 699.52 110.13 699.50 109.67 C 700.75 109.61 702.01 109.54 703.28 109.47 C 704.88 108.31 706.55 107.19 708.46 106.60 C 712.54 105.33 716.01 102.41 720.42 102.16 C 720.44 101.79 720.49 101.06 720.51 100.70 C 722.83 100.23 725.16 99.75 727.51 99.32 C 727.51 98.89 727.52 98.04 727.52 97.61 C 728.77 97.57 730.02 97.54 731.29 97.50 C 731.68 97.04 732.45 96.11 732.84 95.65 C 733.48 95.61 734.76 95.53 735.40 95.49 C 736.18 94.90 736.97 94.32 737.77 93.75 C 742.76 93.78 746.32 89.38 751.38 89.36 C 752.16 88.77 752.94 88.17 753.73 87.58 C 754.37 87.57 755.66 87.54 756.30 87.53 C 757.07 86.87 757.84 86.20 758.63 85.54 C 759.90 85.55 762.45 85.58 763.73 85.59 C 762.13 85.25 760.54 84.94 758.96 84.64 C 761.81 84.58 764.64 84.09 767.39 83.33 C 767.79 82.97 768.59 82.24 768.99 81.88 C 775.32 80.46 781.03 77.00 787.55 76.26 C 787.89 75.88 788.58 75.11 788.93 74.72 C 791.06 74.22 793.22 73.76 795.40 73.39 L 795.49 72.51 C 797.50 72.09 799.51 71.70 801.55 71.39 C 801.91 71.01 802.62 70.24 802.97 69.86 C 805.70 69.44 808.34 68.54 811.09 68.18 C 811.52 67.81 812.39 67.06 812.82 66.68 C 817.76 66.53 821.97 63.48 826.91 63.27 C 828.23 61.41 830.43 61.55 832.47 61.54 L 832.54 60.50 C 834.66 60.05 838.25 61.53 838.87 58.62 C 841.85 58.73 844.61 57.77 847.31 56.61 C 853.60 55.51 859.44 52.77 865.75 51.76 C 870.66 49.79 875.92 49.23 881.18 49.68 C 878.60 49.36 876.00 49.08 873.44 48.78 C 877.87 48.51 882.47 48.24 886.57 46.32 C 889.09 45.15 892.07 45.86 894.60 44.64 C 897.36 43.19 900.69 43.91 903.46 42.47 Z" />
</g>
<g id="#fcab57ff">
<path fill="#fcab57" opacity="1.00" d=" M 897.93 134.64 C 904.50 132.90 911.17 130.84 918.05 131.41 C 918.36 154.35 918.09 177.30 918.19 200.25 C 916.68 198.49 915.46 196.50 914.61 194.36 C 913.88 195.61 913.47 197.28 911.92 197.76 C 905.17 200.74 898.16 203.37 890.83 204.49 C 887.06 204.91 883.92 207.17 880.39 208.31 C 873.16 210.01 865.85 211.78 858.36 211.24 C 854.03 218.07 845.57 219.90 838.05 220.19 C 829.47 222.40 821.37 226.20 813.07 229.28 C 809.24 230.85 806.12 233.88 802.02 234.82 C 797.25 236.04 792.42 237.43 788.46 240.49 C 784.94 243.18 780.58 244.10 776.41 245.23 C 772.10 246.32 768.58 249.38 764.17 250.14 C 761.10 250.79 757.65 250.91 755.32 253.30 C 751.11 257.36 745.04 258.05 740.28 261.22 C 737.23 263.42 733.37 263.62 730.01 265.05 C 722.32 270.24 713.48 273.41 705.90 278.81 C 702.85 281.25 698.91 281.33 695.30 282.24 C 689.38 284.53 685.68 290.28 679.81 292.66 C 675.14 294.42 671.90 298.57 667.15 300.14 C 661.83 301.71 658.63 306.88 653.20 308.20 C 648.55 309.34 646.87 314.80 642.28 316.07 C 638.72 317.59 633.94 317.16 631.59 320.72 C 628.68 324.55 623.80 326.12 620.83 329.91 C 618.16 333.24 613.46 333.53 610.53 336.53 C 607.95 339.20 604.11 339.54 600.75 340.58 C 599.10 343.73 597.99 347.85 594.23 349.09 C 589.35 350.91 585.62 354.61 581.23 357.26 C 577.97 359.22 575.63 362.34 572.40 364.35 C 564.61 369.03 558.45 375.86 551.08 381.10 C 548.73 382.72 546.68 384.70 544.81 386.84 C 541.53 390.67 536.68 392.67 533.39 396.49 C 530.56 399.67 527.46 402.62 523.74 404.72 C 521.05 406.01 520.21 409.15 517.80 410.73 C 508.31 417.11 501.46 426.48 492.87 433.89 C 490.54 436.06 487.34 436.69 484.40 437.59 C 484.63 438.82 484.86 440.06 485.09 441.31 C 479.63 443.61 477.23 449.26 473.20 453.19 C 469.51 457.18 466.53 461.90 461.92 464.94 C 457.51 467.85 455.04 472.67 451.18 476.15 C 447.51 479.54 444.52 483.59 440.61 486.72 C 436.41 490.01 434.67 495.26 431.43 499.35 C 428.10 504.34 422.98 507.72 419.52 512.60 C 415.17 517.88 411.87 524.08 406.48 528.44 C 404.55 530.34 401.86 531.76 400.84 534.40 C 400.03 537.11 398.75 539.65 396.49 541.46 C 392.74 544.41 392.28 549.63 388.88 552.86 C 384.12 557.46 380.73 563.27 375.92 567.83 C 371.93 571.05 371.66 576.60 368.80 580.61 C 365.32 585.60 362.92 591.28 358.98 595.95 C 356.46 598.94 355.07 602.66 352.84 605.85 C 349.09 611.15 344.59 616.01 341.91 621.99 C 340.83 624.42 339.30 626.60 337.64 628.67 C 336.94 626.18 336.15 623.72 335.16 621.34 C 332.90 624.46 331.53 628.18 332.16 632.08 C 333.41 631.06 334.66 630.04 335.91 629.03 C 335.84 631.80 336.78 635.22 334.31 637.27 C 329.99 641.06 328.76 646.90 325.28 651.30 C 321.18 656.79 318.47 663.14 314.96 669.00 C 312.53 672.97 310.74 677.28 309.47 681.76 C 308.63 685.47 304.55 687.03 303.34 690.53 C 301.87 694.26 301.34 698.48 298.60 701.59 C 296.17 704.28 295.60 707.94 294.16 711.15 C 290.08 720.15 286.49 729.38 282.07 738.23 C 280.67 741.08 279.95 744.20 279.01 747.23 C 277.84 751.68 273.56 754.79 273.53 759.64 C 273.40 763.61 271.31 766.99 269.24 770.24 C 266.86 775.40 265.92 781.15 263.03 786.10 C 260.42 790.49 259.46 795.57 257.16 800.10 C 255.05 804.00 256.55 808.72 254.78 812.74 C 253.13 816.56 251.67 820.46 250.42 824.43 C 249.25 828.45 245.88 831.15 243.28 834.23 C 244.13 837.07 245.42 839.85 245.60 842.85 C 245.33 848.95 239.39 852.80 238.77 858.81 C 237.90 866.13 236.56 873.39 234.15 880.39 C 232.72 885.37 230.32 890.29 230.79 895.61 C 229.98 895.99 229.18 896.38 228.38 896.79 C 229.25 904.71 225.37 912.09 225.72 920.00 L 159.36 920.00 C 159.31 915.59 160.05 911.24 161.10 906.98 C 166.70 879.04 173.65 851.36 181.78 824.06 C 185.18 814.81 187.41 805.20 190.60 795.89 C 200.95 764.21 213.16 733.16 226.48 702.62 C 231.49 692.03 235.91 681.14 241.64 670.91 C 254.66 642.15 270.61 614.86 286.46 587.60 C 294.40 575.46 301.89 563.04 309.95 550.98 C 322.85 532.34 335.51 513.50 349.76 495.85 C 356.45 486.51 364.30 478.08 370.89 468.68 C 375.87 462.72 380.60 456.53 386.31 451.23 C 392.31 443.94 398.74 437.03 405.00 429.98 C 410.41 424.68 414.80 418.43 420.62 413.54 C 429.64 403.97 439.23 394.95 448.40 385.53 C 452.00 381.73 456.30 378.69 459.92 374.92 C 466.97 367.64 475.07 361.49 481.98 354.07 C 500.04 338.04 518.79 322.78 538.00 308.14 C 551.71 297.75 565.50 287.42 579.93 278.02 C 634.69 240.01 693.85 208.58 755.04 182.30 C 772.99 175.04 790.94 167.77 809.22 161.39 C 817.90 157.73 827.13 155.69 835.87 152.19 C 856.40 145.79 877.17 140.23 897.93 134.64 Z" />
</g>
<g id="#e4a4a7ff">
<path fill="#e4a4a7" opacity="1.00" d=" M 618.02 149.93 C 621.69 148.14 625.03 145.01 629.40 145.42 C 627.17 148.45 623.61 149.83 620.42 151.56 C 545.38 192.50 475.55 242.83 412.35 300.37 C 406.18 305.16 401.23 311.28 395.10 316.11 C 388.94 321.96 382.96 328.01 376.97 334.05 C 375.80 335.37 374.05 335.84 372.44 336.36 L 372.67 334.56 C 380.14 326.71 387.76 318.97 395.81 311.71 C 426.19 283.64 457.47 256.42 490.92 232.00 C 517.61 211.89 545.64 193.64 573.77 175.63 C 588.42 166.89 602.98 158.01 618.02 149.93 Z" />
<path fill="#e4a4a7" opacity="1.00" d=" M 255.52 472.30 C 257.70 469.30 259.28 465.53 262.97 464.09 C 262.62 468.19 259.56 471.13 257.36 474.35 C 238.89 500.58 221.36 527.47 204.99 555.07 C 196.32 569.25 188.79 584.08 180.63 598.55 C 166.51 625.37 153.36 652.71 141.50 680.61 C 139.63 684.75 138.58 689.39 135.29 692.73 L 134.14 690.81 C 165.96 613.60 206.79 540.11 255.52 472.30 Z" />
<path fill="#e4a4a7" opacity="1.00" d=" M 916.10 591.66 C 916.74 591.91 918.00 592.41 918.64 592.66 C 918.40 592.74 917.92 592.90 917.68 592.98 C 899.51 600.67 882.06 609.97 864.86 619.60 C 858.93 622.79 853.44 626.75 847.41 629.73 C 847.40 627.93 849.07 627.14 850.39 626.32 C 871.58 613.48 893.37 601.54 916.10 591.66 Z" />
<path fill="#e4a4a7" opacity="1.00" d=" M 843.69 630.44 C 844.75 629.57 846.12 629.73 847.41 629.73 C 846.15 630.65 844.91 631.60 843.64 632.50 C 743.74 695.64 665.02 791.22 621.16 900.89 C 618.90 907.29 615.76 913.39 614.14 920.00 L 611.98 920.00 C 640.40 839.16 688.05 765.18 749.44 705.42 C 760.00 694.67 771.39 684.77 782.93 675.08 C 802.09 658.78 822.64 644.20 843.69 630.44 Z" />
<path fill="#e4a4a7" opacity="1.00" d=" M 105.55 768.04 C 107.51 762.98 108.26 757.37 111.50 752.89 C 113.86 756.11 110.99 759.76 110.09 762.99 C 106.40 774.58 102.53 786.12 99.22 797.84 C 96.14 807.53 93.19 817.29 90.99 827.24 C 87.84 837.94 85.27 848.81 82.69 859.67 C 80.01 868.65 78.92 878.00 76.49 887.06 C 75.02 898.11 71.45 908.86 70.77 920.00 L 67.80 920.00 C 70.50 901.31 74.98 882.89 78.67 864.38 C 85.33 837.62 91.68 810.72 100.42 784.53 C 102.06 779.01 103.48 773.42 105.55 768.04 Z" />
</g>
<g id="#fbac53ff">
<path fill="#fbac53" opacity="1.00" d=" M 911.92 197.76 C 913.47 197.28 913.88 195.61 914.61 194.36 C 915.46 196.50 916.68 198.49 918.19 200.25 C 918.20 200.76 918.22 201.77 918.23 202.28 C 915.45 202.50 912.73 203.13 910.10 204.01 C 904.77 205.80 899.02 205.87 893.78 207.94 C 877.02 213.99 859.45 217.50 842.87 224.03 C 833.61 228.52 823.35 230.35 814.07 234.77 C 806.33 238.41 797.92 240.34 790.28 244.20 C 772.85 251.40 755.53 258.90 738.73 267.47 C 728.91 271.73 719.38 276.60 710.07 281.86 C 703.95 285.07 697.77 288.14 691.95 291.85 C 672.53 302.41 653.74 314.07 635.16 326.02 C 626.68 331.51 618.62 337.60 610.09 343.01 C 604.60 346.43 599.94 351.00 594.39 354.34 C 587.01 359.08 580.71 365.26 573.43 370.15 C 561.07 379.80 549.00 389.83 536.90 399.80 C 527.84 407.41 519.38 415.69 510.46 423.45 C 502.72 430.74 495.38 438.45 487.44 445.53 C 475.02 458.78 461.74 471.24 450.24 485.33 C 440.71 494.90 432.63 505.75 423.75 515.90 C 417.71 522.56 412.52 529.92 406.94 536.96 C 390.94 556.69 376.87 577.86 362.50 598.77 C 358.70 604.62 355.49 610.84 351.34 616.47 C 343.05 629.70 335.67 643.49 327.68 656.90 C 322.32 666.33 317.21 675.89 312.59 685.70 C 307.79 693.87 304.33 702.72 299.78 711.03 C 293.46 725.18 286.92 739.25 281.22 753.67 C 277.32 762.27 274.49 771.30 270.60 779.91 C 259.68 809.84 250.04 840.24 241.55 870.95 C 238.52 883.90 235.15 896.76 232.22 909.74 C 231.42 913.09 231.39 916.56 231.40 920.00 L 225.72 920.00 C 225.37 912.09 229.25 904.71 228.38 896.79 C 229.18 896.38 229.98 895.99 230.79 895.61 C 230.32 890.29 232.72 885.37 234.15 880.39 C 236.56 873.39 237.90 866.13 238.77 858.81 C 239.39 852.80 245.33 848.95 245.60 842.85 C 245.42 839.85 244.13 837.07 243.28 834.23 C 245.88 831.15 249.25 828.45 250.42 824.43 C 251.67 820.46 253.13 816.56 254.78 812.74 C 256.55 808.72 255.05 804.00 257.16 800.10 C 259.46 795.57 260.42 790.49 263.03 786.10 C 265.92 781.15 266.86 775.40 269.24 770.24 C 271.31 766.99 273.40 763.61 273.53 759.64 C 273.56 754.79 277.84 751.68 279.01 747.23 C 279.95 744.20 280.67 741.08 282.07 738.23 C 286.49 729.38 290.08 720.15 294.16 711.15 C 295.60 707.94 296.17 704.28 298.60 701.59 C 301.34 698.48 301.87 694.26 303.34 690.53 C 304.55 687.03 308.63 685.47 309.47 681.76 C 310.74 677.28 312.53 672.97 314.96 669.00 C 318.47 663.14 321.18 656.79 325.28 651.30 C 328.76 646.90 329.99 641.06 334.31 637.27 C 336.78 635.22 335.84 631.80 335.91 629.03 C 334.66 630.04 333.41 631.06 332.16 632.08 C 331.53 628.18 332.90 624.46 335.16 621.34 C 336.15 623.72 336.94 626.18 337.64 628.67 C 339.30 626.60 340.83 624.42 341.91 621.99 C 344.59 616.01 349.09 611.15 352.84 605.85 C 355.07 602.66 356.46 598.94 358.98 595.95 C 362.92 591.28 365.32 585.60 368.80 580.61 C 371.66 576.60 371.93 571.05 375.92 567.83 C 380.73 563.27 384.12 557.46 388.88 552.86 C 392.28 549.63 392.74 544.41 396.49 541.46 C 398.75 539.65 400.03 537.11 400.84 534.40 C 401.86 531.76 404.55 530.34 406.48 528.44 C 411.87 524.08 415.17 517.88 419.52 512.60 C 422.98 507.72 428.10 504.34 431.43 499.35 C 434.67 495.26 436.41 490.01 440.61 486.72 C 444.52 483.59 447.51 479.54 451.18 476.15 C 455.04 472.67 457.51 467.85 461.92 464.94 C 466.53 461.90 469.51 457.18 473.20 453.19 C 477.23 449.26 479.63 443.61 485.09 441.31 C 484.86 440.06 484.63 438.82 484.40 437.59 C 487.34 436.69 490.54 436.06 492.87 433.89 C 501.46 426.48 508.31 417.11 517.80 410.73 C 520.21 409.15 521.05 406.01 523.74 404.72 C 527.46 402.62 530.56 399.67 533.39 396.49 C 536.68 392.67 541.53 390.67 544.81 386.84 C 546.68 384.70 548.73 382.72 551.08 381.10 C 558.45 375.86 564.61 369.03 572.40 364.35 C 575.63 362.34 577.97 359.22 581.23 357.26 C 585.62 354.61 589.35 350.91 594.23 349.09 C 597.99 347.85 599.10 343.73 600.75 340.58 C 604.11 339.54 607.95 339.20 610.53 336.53 C 613.46 333.53 618.16 333.24 620.83 329.91 C 623.80 326.12 628.68 324.55 631.59 320.72 C 633.94 317.16 638.72 317.59 642.28 316.07 C 646.87 314.80 648.55 309.34 653.20 308.20 C 658.63 306.88 661.83 301.71 667.15 300.14 C 671.90 298.57 675.14 294.42 679.81 292.66 C 685.68 290.28 689.38 284.53 695.30 282.24 C 698.91 281.33 702.85 281.25 705.90 278.81 C 713.48 273.41 722.32 270.24 730.01 265.05 C 733.37 263.62 737.23 263.42 740.28 261.22 C 745.04 258.05 751.11 257.36 755.32 253.30 C 757.65 250.91 761.10 250.79 764.17 250.14 C 768.58 249.38 772.10 246.32 776.41 245.23 C 780.58 244.10 784.94 243.18 788.46 240.49 C 792.42 237.43 797.25 236.04 802.02 234.82 C 806.12 233.88 809.24 230.85 813.07 229.28 C 821.37 226.20 829.47 222.40 838.05 220.19 C 845.57 219.90 854.03 218.07 858.36 211.24 C 865.85 211.78 873.16 210.01 880.39 208.31 C 883.92 207.17 887.06 204.91 890.83 204.49 C 898.16 203.37 905.17 200.74 911.92 197.76 Z" />
</g>
<g id="#fdfd41ff">
<path fill="#fdfd41" opacity="1.00" d=" M 910.10 204.01 C 912.73 203.13 915.45 202.50 918.23 202.28 C 918.42 225.94 918.20 249.61 918.34 273.27 C 917.25 274.27 916.35 275.66 914.84 276.03 C 903.98 278.89 892.93 281.31 882.52 285.63 C 871.49 289.27 860.23 292.28 849.54 296.89 C 822.82 306.77 796.34 317.50 770.84 330.25 C 761.99 334.10 753.67 339.05 744.93 343.14 C 738.56 346.85 731.75 349.75 725.55 353.75 C 722.02 355.99 718.11 357.53 714.53 359.66 C 702.46 367.32 689.70 373.84 678.07 382.20 C 666.96 388.92 656.62 396.78 645.83 403.97 C 641.06 407.01 637.33 411.36 632.60 414.42 C 622.30 420.14 613.73 428.35 604.31 435.34 C 590.99 446.68 577.30 457.60 564.52 469.56 C 551.72 481.06 539.39 493.07 527.05 505.07 C 516.45 517.43 504.47 528.54 494.28 541.27 C 479.08 558.53 464.33 576.22 451.00 594.97 C 444.21 603.30 438.47 612.40 432.47 621.30 C 426.10 630.04 420.50 639.31 414.28 648.15 C 412.07 651.62 410.26 655.34 407.74 658.61 C 404.42 662.85 402.68 668.03 399.62 672.43 C 395.65 678.30 392.81 684.83 389.14 690.88 C 372.36 721.95 356.52 753.60 343.72 786.52 C 335.51 806.26 328.87 826.58 321.94 846.79 C 318.14 859.08 314.49 871.43 311.26 883.89 C 308.50 889.57 308.23 895.96 306.24 901.90 C 304.31 907.81 304.16 914.14 302.05 920.00 L 231.40 920.00 C 231.39 916.56 231.42 913.09 232.22 909.74 C 235.15 896.76 238.52 883.90 241.55 870.95 C 250.04 840.24 259.68 809.84 270.60 779.91 C 274.49 771.30 277.32 762.27 281.22 753.67 C 286.92 739.25 293.46 725.18 299.78 711.03 C 304.33 702.72 307.79 693.87 312.59 685.70 C 317.21 675.89 322.32 666.33 327.68 656.90 C 335.67 643.49 343.05 629.70 351.34 616.47 C 355.49 610.84 358.70 604.62 362.50 598.77 C 376.87 577.86 390.94 556.69 406.94 536.96 C 412.52 529.92 417.71 522.56 423.75 515.90 C 432.63 505.75 440.71 494.90 450.24 485.33 C 461.74 471.24 475.02 458.78 487.44 445.53 C 495.38 438.45 502.72 430.74 510.46 423.45 C 519.38 415.69 527.84 407.41 536.90 399.80 C 549.00 389.83 561.07 379.80 573.43 370.15 C 580.71 365.26 587.01 359.08 594.39 354.34 C 599.94 351.00 604.60 346.43 610.09 343.01 C 618.62 337.60 626.68 331.51 635.16 326.02 C 653.74 314.07 672.53 302.41 691.95 291.85 C 697.77 288.14 703.95 285.07 710.07 281.86 C 719.38 276.60 728.91 271.73 738.73 267.47 C 755.53 258.90 772.85 251.40 790.28 244.20 C 797.92 240.34 806.33 238.41 814.07 234.77 C 823.35 230.35 833.61 228.52 842.87 224.03 C 859.45 217.50 877.02 213.99 893.78 207.94 C 899.02 205.87 904.77 205.80 910.10 204.01 Z" />
</g>
<g id="#ace565ff">
<path fill="#ace565" opacity="1.00" d=" M 914.84 276.03 C 916.35 275.66 917.25 274.27 918.34 273.27 C 918.16 291.34 918.24 309.41 918.28 327.48 C 911.06 330.04 903.73 332.27 896.36 334.36 C 871.17 342.88 846.11 351.90 821.86 362.82 C 801.06 371.34 781.22 381.95 761.20 392.11 C 743.39 402.11 725.56 412.10 708.44 423.26 C 701.67 427.09 695.81 432.28 689.07 436.15 C 671.57 447.72 655.05 460.68 638.34 473.34 C 633.61 477.32 628.98 481.42 624.04 485.14 C 617.88 490.99 611.35 496.43 604.74 501.77 C 600.39 505.36 596.62 509.60 592.29 513.23 C 584.83 519.41 578.77 527.07 571.48 533.44 C 564.14 540.76 557.12 548.41 549.96 555.90 C 544.12 561.80 538.25 567.69 533.19 574.29 C 519.84 589.37 507.18 605.04 495.06 621.12 C 490.13 627.02 486.78 634.06 481.55 639.72 C 470.16 655.80 459.21 672.19 449.03 689.07 C 444.34 695.59 441.20 703.03 436.80 709.73 C 432.19 717.78 428.18 726.17 423.39 734.14 C 414.20 752.90 404.90 771.63 396.88 790.93 C 389.66 806.05 385.06 822.18 379.78 838.03 C 379.06 839.70 379.73 841.41 380.05 843.12 L 379.83 843.72 C 376.90 844.84 376.90 848.25 376.12 850.82 C 375.24 854.96 373.42 858.84 372.58 862.99 C 370.76 873.63 367.66 884.00 365.59 894.59 C 364.28 903.09 362.59 911.53 361.06 920.00 L 302.05 920.00 C 304.16 914.14 304.31 907.81 306.24 901.90 C 308.23 895.96 308.50 889.57 311.26 883.89 C 314.49 871.43 318.14 859.08 321.94 846.79 C 328.87 826.58 335.51 806.26 343.72 786.52 C 356.52 753.60 372.36 721.95 389.14 690.88 C 392.81 684.83 395.65 678.30 399.62 672.43 C 402.68 668.03 404.42 662.85 407.74 658.61 C 410.26 655.34 412.07 651.62 414.28 648.15 C 420.50 639.31 426.10 630.04 432.47 621.30 C 438.47 612.40 444.21 603.30 451.00 594.97 C 464.33 576.22 479.08 558.53 494.28 541.27 C 504.47 528.54 516.45 517.43 527.05 505.07 C 539.39 493.07 551.72 481.06 564.52 469.56 C 577.30 457.60 590.99 446.68 604.31 435.34 C 613.73 428.35 622.30 420.14 632.60 414.42 C 637.33 411.36 641.06 407.01 645.83 403.97 C 656.62 396.78 666.96 388.92 678.07 382.20 C 689.70 373.84 702.46 367.32 714.53 359.66 C 718.11 357.53 722.02 355.99 725.55 353.75 C 731.75 349.75 738.56 346.85 744.93 343.14 C 753.67 339.05 761.99 334.10 770.84 330.25 C 796.34 317.50 822.82 306.77 849.54 296.89 C 860.23 292.28 871.49 289.27 882.52 285.63 C 892.93 281.31 903.98 278.89 914.84 276.03 Z" />
</g>
<g id="#664892ff">
<path fill="#664892" opacity="1.00" d=" M 918.22 331.06 C 918.67 330.78 919.56 330.22 920.00 329.95 L 920.00 418.95 C 917.82 424.38 918.54 430.28 918.42 435.98 C 918.43 449.98 918.45 463.99 918.42 477.99 C 918.37 484.08 918.72 490.18 918.06 496.25 C 910.39 498.55 903.01 501.69 895.75 505.03 C 886.99 508.39 878.57 512.51 870.03 516.36 C 861.76 520.94 852.84 524.19 844.67 528.96 C 839.38 532.05 833.70 534.41 828.46 537.58 C 820.16 542.72 811.72 547.61 803.18 552.33 C 795.66 557.05 788.33 562.08 781.00 567.09 C 772.61 571.79 765.26 578.02 757.40 583.51 C 749.80 588.87 742.97 595.22 735.27 600.43 C 728.42 605.82 722.25 612.01 715.50 617.50 C 698.48 632.07 682.89 648.19 667.11 664.07 C 656.07 676.66 644.56 688.88 634.48 702.30 C 628.06 710.32 622.18 718.76 615.87 726.87 C 610.37 733.47 605.57 740.63 601.11 747.97 C 596.36 755.21 591.28 762.24 587.09 769.84 C 580.95 780.69 574.17 791.18 568.50 802.30 C 565.16 807.61 563.47 813.74 560.15 819.07 C 555.62 826.25 552.63 834.24 549.06 841.91 C 546.40 849.03 542.42 855.58 540.09 862.83 C 537.65 870.20 534.29 877.23 531.80 884.59 C 529.74 890.79 526.83 896.69 525.31 903.07 C 523.54 908.68 522.44 914.50 520.34 920.00 L 446.72 920.00 C 448.44 912.87 450.12 905.73 452.19 898.69 C 455.19 891.22 457.27 883.43 459.66 875.76 C 461.77 870.63 464.00 865.52 465.21 860.08 C 466.10 855.57 468.96 851.82 470.37 847.50 C 474.04 835.81 480.10 825.07 484.23 813.56 C 486.14 808.03 489.91 803.39 491.73 797.83 C 493.71 791.97 497.77 787.14 499.91 781.36 C 502.34 775.00 506.62 769.52 508.73 763.02 C 509.61 760.31 512.26 758.70 513.49 756.17 C 516.60 750.06 520.27 744.26 523.67 738.31 C 528.79 730.85 532.71 722.66 537.71 715.12 C 543.85 706.38 549.29 697.16 555.97 688.79 C 560.80 681.66 566.37 675.08 571.37 668.08 C 576.57 659.54 584.26 652.95 589.93 644.75 C 593.31 639.59 598.03 635.54 601.69 630.60 C 606.07 625.97 610.98 621.82 614.86 616.73 C 618.83 611.60 624.32 607.87 628.07 602.55 C 632.64 596.29 639.34 592.14 644.66 586.61 C 654.11 576.79 664.21 567.61 674.82 559.07 C 680.27 555.22 684.63 550.12 689.96 546.13 C 694.08 543.00 697.78 539.32 702.23 536.62 C 704.96 535.14 706.16 531.83 709.08 530.63 C 717.53 526.88 723.12 518.91 731.40 514.85 C 737.56 511.99 742.31 507.01 748.00 503.40 C 757.65 497.44 767.04 491.06 776.97 485.55 C 782.45 482.64 787.94 479.67 792.95 475.96 C 795.63 473.94 798.72 472.61 801.81 471.35 C 815.23 465.74 827.00 456.64 840.92 452.18 C 847.76 448.57 855.02 445.85 861.85 442.23 C 870.60 438.76 879.49 435.60 888.14 431.89 C 897.95 428.55 907.61 424.77 917.39 421.35 C 919.14 417.12 918.28 412.49 918.41 408.06 C 918.37 384.34 918.37 360.63 918.44 336.92 C 918.41 335.05 918.00 333.21 917.68 331.39 C 917.81 331.30 918.09 331.14 918.22 331.06 Z" />
</g>
<g id="#2087c1ff">
<path fill="#2087c1" opacity="1.00" d=" M 877.50 344.29 C 890.79 339.66 904.14 335.25 917.68 331.39 C 918.00 333.21 918.41 335.05 918.44 336.92 C 918.37 360.63 918.37 384.34 918.41 408.06 C 918.28 412.49 919.14 417.12 917.39 421.35 C 907.61 424.77 897.95 428.55 888.14 431.89 C 879.49 435.60 870.60 438.76 861.85 442.23 C 855.02 445.85 847.76 448.57 840.92 452.18 C 827.00 456.64 815.23 465.74 801.81 471.35 C 798.72 472.61 795.63 473.94 792.95 475.96 C 787.94 479.67 782.45 482.64 776.97 485.55 C 767.04 491.06 757.65 497.44 748.00 503.40 C 742.31 507.01 737.56 511.99 731.40 514.85 C 723.12 518.91 717.53 526.88 709.08 530.63 C 706.16 531.83 704.96 535.14 702.23 536.62 C 697.78 539.32 694.08 543.00 689.96 546.13 C 684.63 550.12 680.27 555.22 674.82 559.07 C 664.21 567.61 654.11 576.79 644.66 586.61 C 639.34 592.14 632.64 596.29 628.07 602.55 C 624.32 607.87 618.83 611.60 614.86 616.73 C 610.98 621.82 606.07 625.97 601.69 630.60 C 598.03 635.54 593.31 639.59 589.93 644.75 C 584.26 652.95 576.57 659.54 571.37 668.08 C 566.37 675.08 560.80 681.66 555.97 688.79 C 549.29 697.16 543.85 706.38 537.71 715.12 C 532.71 722.66 528.79 730.85 523.67 738.31 C 520.27 744.26 516.60 750.06 513.49 756.17 C 512.26 758.70 509.61 760.31 508.73 763.02 C 506.62 769.52 502.34 775.00 499.91 781.36 C 497.77 787.14 493.71 791.97 491.73 797.83 C 489.91 803.39 486.14 808.03 484.23 813.56 C 480.10 825.07 474.04 835.81 470.37 847.50 C 468.96 851.82 466.10 855.57 465.21 860.08 C 464.00 865.52 461.77 870.63 459.66 875.76 C 457.27 883.43 455.19 891.22 452.19 898.69 C 450.12 905.73 448.44 912.87 446.72 920.00 L 365.80 920.00 C 364.81 913.18 367.19 906.52 368.15 899.84 C 370.23 889.68 371.88 879.41 374.89 869.48 C 376.57 863.00 377.91 856.43 379.88 850.03 C 380.69 847.97 380.12 845.80 379.83 843.72 L 380.05 843.12 C 381.92 841.95 383.11 840.13 383.58 838.00 C 388.04 822.13 393.91 806.70 400.50 791.61 C 407.80 774.00 415.88 756.71 424.92 739.93 C 439.20 710.86 456.24 683.25 473.94 656.17 C 479.47 649.23 483.93 641.50 489.45 634.54 C 494.55 626.18 500.87 618.67 507.01 611.07 C 517.58 596.73 529.74 583.68 541.02 569.93 C 547.74 563.32 553.58 555.89 560.42 549.40 C 568.66 540.01 577.57 531.21 586.97 522.98 C 605.55 504.09 626.25 487.51 646.73 470.77 C 658.01 462.10 669.33 453.48 680.86 445.14 C 693.91 436.29 707.13 427.68 720.53 419.38 C 729.06 413.17 738.61 408.62 747.56 403.08 C 770.45 390.35 793.65 378.07 817.80 367.88 C 828.97 362.60 840.53 358.27 852.03 353.78 C 860.59 350.78 868.74 346.74 877.50 344.29 Z" />
</g>
<g id="#ac4b98ff">
<path fill="#ac4b98" opacity="1.00" d=" M 895.75 505.03 C 903.01 501.69 910.39 498.55 918.06 496.25 C 917.68 500.82 918.47 505.39 918.14 509.96 C 917.75 516.30 917.64 522.66 917.98 529.01 C 918.82 545.67 917.11 562.35 918.08 579.02 C 918.40 583.57 917.13 588.21 918.64 592.66 C 918.00 592.41 916.74 591.91 916.10 591.66 C 893.37 601.54 871.58 613.48 850.39 626.32 C 849.07 627.14 847.40 627.93 847.41 629.73 C 846.12 629.73 844.75 629.57 843.69 630.44 C 822.64 644.20 802.09 658.78 782.93 675.08 C 771.39 684.77 760.00 694.67 749.44 705.42 C 688.05 765.18 640.40 839.16 611.98 920.00 L 520.34 920.00 C 522.44 914.50 523.54 908.68 525.31 903.07 C 526.83 896.69 529.74 890.79 531.80 884.59 C 534.29 877.23 537.65 870.20 540.09 862.83 C 542.42 855.58 546.40 849.03 549.06 841.91 C 552.63 834.24 555.62 826.25 560.15 819.07 C 563.47 813.74 565.16 807.61 568.50 802.30 C 574.17 791.18 580.95 780.69 587.09 769.84 C 591.28 762.24 596.36 755.21 601.11 747.97 C 605.57 740.63 610.37 733.47 615.87 726.87 C 622.18 718.76 628.06 710.32 634.48 702.30 C 644.56 688.88 656.07 676.66 667.11 664.07 C 682.89 648.19 698.48 632.07 715.50 617.50 C 722.25 612.01 728.42 605.82 735.27 600.43 C 742.97 595.22 749.80 588.87 757.40 583.51 C 765.26 578.02 772.61 571.79 781.00 567.09 C 788.33 562.08 795.66 557.05 803.18 552.33 C 811.72 547.61 820.16 542.72 828.46 537.58 C 833.70 534.41 839.38 532.05 844.67 528.96 C 852.84 524.19 861.76 520.94 870.03 516.36 C 878.57 512.51 886.99 508.39 895.75 505.03 Z" />
</g>
</svg>
