<?xml version="1.0" encoding="UTF-8" ?>
<!DOCTYPE svg PUBLIC "-//W3C//DTD SVG 1.1//EN" "http://www.w3.org/Graphics/SVG/1.1/DTD/svg11.dtd">
<svg width="920pt" height="920pt" viewBox="0 0 920 920" version="1.1" xmlns="http://www.w3.org/2000/svg">
<g id="#ffffffff">
</g>
<g id="#664892ff">
<path fill="#664892" opacity="1.00" d=" M 918.12 0.00 L 920.00 0.00 L 920.00 920.00 L 918.11 920.00 C 918.47 815.34 918.14 710.67 918.28 606.00 C 918.33 601.28 918.07 596.56 917.82 591.86 C 917.34 560.36 918.02 528.84 917.52 497.35 C 889.51 506.65 862.85 520.02 836.66 533.64 C 753.96 578.45 680.77 641.02 624.31 716.33 C 596.84 751.35 574.82 790.25 554.93 829.95 C 542.20 859.39 528.83 888.78 521.01 920.00 L 446.89 920.00 C 451.49 897.99 459.80 877.03 466.91 855.78 C 495.37 781.99 534.44 711.96 585.13 651.12 C 598.02 633.56 614.02 618.66 628.45 602.42 C 634.86 594.83 642.99 588.99 649.74 581.73 C 662.65 568.20 677.82 557.16 691.78 544.80 C 725.25 517.36 761.77 493.86 799.35 472.49 C 812.20 467.59 823.31 459.15 836.14 454.20 C 844.74 450.70 853.01 446.47 861.39 442.47 C 879.00 435.69 896.58 428.82 914.35 422.45 C 919.01 421.28 918.21 415.72 918.42 412.04 C 918.04 384.65 918.80 357.24 917.98 329.85 C 918.78 311.30 918.09 292.72 918.39 274.15 C 918.31 250.00 918.40 225.85 918.33 201.69 C 918.27 177.77 918.51 153.84 918.19 129.92 C 918.27 100.48 918.81 71.01 917.91 41.59 C 917.91 41.09 917.90 40.09 917.90 39.59 C 918.48 26.40 918.32 13.19 918.12 0.00 Z" />
</g>
<g id="#fcab56ff">
<path fill="#fcab56" opacity="1.00" d=" M 901.86 42.74 C 907.15 41.43 912.47 40.21 917.90 39.59 C 917.90 40.09 917.91 41.09 917.91 41.59 C 880.99 50.00 844.14 58.90 808.31 71.24 C 768.99 82.97 731.28 99.32 693.67 115.52 C 660.95 130.86 628.76 147.33 597.47 165.41 C 581.03 175.62 563.76 184.55 548.20 196.13 C 519.87 213.45 493.98 234.44 467.48 254.40 C 438.18 278.31 409.46 302.95 382.64 329.63 C 366.85 346.17 350.07 361.78 334.90 378.90 C 240.85 483.79 167.05 606.89 119.20 739.41 C 98.33 798.11 81.13 858.43 71.50 920.00 L 69.45 920.00 C 69.70 912.59 71.46 905.38 72.95 898.16 C 110.78 703.39 203.54 519.77 337.38 373.37 C 357.50 351.21 378.15 329.40 400.49 309.44 C 540.20 178.44 715.15 85.44 901.86 42.74 Z" />
<path fill="#fcab56" opacity="1.00" d=" M 866.46 142.67 C 883.70 138.44 900.58 132.46 918.19 129.92 C 918.51 153.84 918.27 177.77 918.33 201.69 C 892.14 206.06 867.22 215.89 842.06 224.13 C 690.12 275.72 552.76 368.40 446.34 488.33 C 367.92 576.01 306.98 679.07 266.46 789.43 C 251.52 832.11 237.99 875.48 229.76 920.00 L 157.93 920.00 C 181.12 797.52 227.95 679.68 294.24 574.16 C 377.29 442.11 491.39 329.77 624.69 248.75 C 700.12 202.92 781.72 167.33 866.46 142.67 Z" />
</g>
<g id="#fb554fff">
<path fill="#fb554f" opacity="1.00" d=" M 808.31 71.24 C 844.14 58.90 880.99 50.00 917.91 41.59 C 918.81 71.01 918.27 100.48 918.19 129.92 C 900.58 132.46 883.70 138.44 866.46 142.67 C 781.72 167.33 700.12 202.92 624.69 248.75 C 491.39 329.77 377.29 442.11 294.24 574.16 C 227.95 679.68 181.12 797.52 157.93 920.00 L 71.50 920.00 C 81.13 858.43 98.33 798.11 119.20 739.41 C 167.05 606.89 240.85 483.79 334.90 378.90 C 350.07 361.78 366.85 346.17 382.64 329.63 C 409.46 302.95 438.18 278.31 467.48 254.40 C 493.98 234.44 519.87 213.45 548.20 196.13 C 563.76 184.55 581.03 175.62 597.47 165.41 C 628.76 147.33 660.95 130.86 693.67 115.52 C 731.28 99.32 768.99 82.97 808.31 71.24 Z" />
</g>
<g id="#fdfd41ff">
<path fill="#fdfd41" opacity="1.00" d=" M 842.06 224.13 C 867.22 215.89 892.14 206.06 918.33 201.69 C 918.40 225.85 918.31 250.00 918.39 274.15 C 912.74 277.89 905.90 278.64 899.55 280.50 C 785.79 314.84 678.88 372.30 588.34 449.34 C 450.56 565.35 350.43 725.42 307.35 900.39 C 305.63 906.83 303.67 913.27 303.54 920.00 L 229.76 920.00 C 237.99 875.48 251.52 832.11 266.46 789.43 C 306.98 679.07 367.92 576.01 446.34 488.33 C 552.76 368.40 690.12 275.72 842.06 224.13 Z" />
</g>
<g id="#ace565ff">
<path fill="#ace565" opacity="1.00" d=" M 899.55 280.50 C 905.90 278.64 912.74 277.89 918.39 274.15 C 918.09 292.72 918.78 311.30 917.98 329.85 C 756.57 376.30 611.20 475.53 507.61 607.59 C 473.31 651.43 443.13 698.55 418.49 748.50 C 397.14 790.60 379.79 834.96 370.43 881.35 C 367.82 894.16 364.65 906.93 363.61 920.00 L 303.54 920.00 C 303.67 913.27 305.63 906.83 307.35 900.39 C 350.43 725.42 450.56 565.35 588.34 449.34 C 678.88 372.30 785.79 314.84 899.55 280.50 Z" />
</g>
<g id="#2087c1ff">
<path fill="#2087c1" opacity="1.00" d=" M 507.61 607.59 C 611.20 475.53 756.57 376.30 917.98 329.85 C 918.80 357.24 918.04 384.65 918.42 412.04 C 918.21 415.72 919.01 421.28 914.35 422.45 C 896.58 428.82 879.00 435.69 861.39 442.47 C 853.01 446.47 844.74 450.70 836.14 454.20 C 823.31 459.15 812.20 467.59 799.35 472.49 C 761.77 493.86 725.25 517.36 691.78 544.80 C 677.82 557.16 662.65 568.20 649.74 581.73 C 642.99 588.99 634.86 594.83 628.45 602.42 C 614.02 618.66 598.02 633.56 585.13 651.12 C 534.44 711.96 495.37 781.99 466.91 855.78 C 459.80 877.03 451.49 897.99 446.89 920.00 L 363.61 920.00 C 364.65 906.93 367.82 894.16 370.43 881.35 C 379.79 834.96 397.14 790.60 418.49 748.50 C 443.13 698.55 473.31 651.43 507.61 607.59 Z" />
</g>
<g id="#ac4b98ff">
<path fill="#ac4b98" opacity="1.00" d=" M 836.66 533.64 C 862.85 520.02 889.51 506.65 917.52 497.35 C 918.02 528.84 917.34 560.36 917.82 591.86 C 900.57 598.16 884.27 607.04 868.58 616.51 C 858.10 621.32 848.72 628.07 838.85 633.95 C 817.13 650.17 793.87 664.41 774.20 683.25 C 759.56 694.17 748.68 709.02 734.64 720.64 C 684.62 773.58 644.40 836.01 618.15 904.03 C 616.13 909.40 614.08 914.76 611.74 920.00 L 521.01 920.00 C 528.83 888.78 542.20 859.39 554.93 829.95 C 574.82 790.25 596.84 751.35 624.31 716.33 C 680.77 641.02 753.96 578.45 836.66 533.64 Z" />
</g>
</svg>
