<?xml version="1.0" encoding="UTF-8" ?>
<!DOCTYPE svg PUBLIC "-//W3C//DTD SVG 1.1//EN" "http://www.w3.org/Graphics/SVG/1.1/DTD/svg11.dtd">
<svg width="913pt" height="913pt" viewBox="0 0 913 913" version="1.1" xmlns="http://www.w3.org/2000/svg">
<g id="#ffffffff">
</g>
<g id="#fcab56ff">
<path fill="#fcab56" opacity="1.00" d=" M 752.61 81.48 C 804.72 61.20 858.52 45.48 913.00 33.02 L 913.00 35.71 C 770.92 66.54 635.17 126.56 516.52 210.47 C 492.38 228.17 468.38 246.11 445.60 265.56 C 432.29 275.82 420.63 288.02 407.57 298.57 C 386.02 318.68 365.71 340.05 344.89 360.91 C 225.87 489.98 138.21 647.91 92.36 817.42 C 84.07 848.94 76.04 880.71 71.46 913.00 L 69.43 913.00 C 69.81 904.17 72.14 895.62 73.78 886.98 C 111.97 694.20 204.11 512.65 336.39 367.38 C 450.25 241.35 594.19 142.72 752.61 81.48 Z" />
<path fill="#fcab56" opacity="1.00" d=" M 552.19 290.21 C 659.66 211.01 783.38 154.60 913.00 123.15 L 913.00 195.17 C 908.15 197.58 902.77 198.43 897.56 199.70 C 832.74 218.01 769.62 242.56 710.06 274.10 C 559.22 353.92 430.54 475.43 343.05 622.03 C 289.44 711.78 250.35 810.46 229.68 913.00 L 157.79 913.00 C 178.49 805.67 216.48 701.63 270.68 606.65 C 340.64 482.78 437.58 374.39 552.19 290.21 Z" />
</g>
<g id="#fb554fff">
<path fill="#fb554f" opacity="1.00" d=" M 516.52 210.47 C 635.17 126.56 770.92 66.54 913.00 35.71 L 913.00 123.15 C 783.38 154.60 659.66 211.01 552.19 290.21 C 437.58 374.39 340.64 482.78 270.68 606.65 C 216.48 701.63 178.49 805.67 157.79 913.00 L 71.46 913.00 C 76.04 880.71 84.07 848.94 92.36 817.42 C 138.21 647.91 225.87 489.98 344.89 360.91 C 365.71 340.05 386.02 318.68 407.57 298.57 C 420.63 288.02 432.29 275.82 445.60 265.56 C 468.38 246.11 492.38 228.17 516.52 210.47 Z" />
</g>
<g id="#fdfd41ff">
<path fill="#fdfd41" opacity="1.00" d=" M 897.56 199.70 C 902.77 198.43 908.15 197.58 913.00 195.17 L 913.00 269.84 C 797.95 301.96 689.74 358.62 597.60 434.60 C 455.31 551.07 351.69 714.01 307.53 892.59 C 305.76 899.30 303.77 906.01 303.50 913.00 L 229.68 913.00 C 250.35 810.46 289.44 711.78 343.05 622.03 C 430.54 475.43 559.22 353.92 710.06 274.10 C 769.62 242.56 832.74 218.01 897.56 199.70 Z" />
</g>
<g id="#ace565ff">
<path fill="#ace565" opacity="1.00" d=" M 597.60 434.60 C 689.74 358.62 797.95 301.96 913.00 269.84 L 913.00 323.96 C 826.66 350.00 744.57 390.58 671.42 443.43 C 653.73 455.92 637.14 469.86 619.97 483.02 C 595.94 505.62 570.41 526.79 549.05 552.06 C 535.56 566.30 523.51 581.80 510.34 596.32 C 499.74 611.27 488.36 625.66 477.42 640.35 C 469.00 656.56 458.02 671.23 449.09 687.16 C 420.29 735.77 395.01 786.95 379.24 841.37 C 372.48 864.87 367.94 888.94 363.69 913.00 L 303.50 913.00 C 303.77 906.01 305.76 899.30 307.53 892.59 C 351.69 714.01 455.31 551.07 597.60 434.60 Z" />
</g>
<g id="#2087c1ff">
<path fill="#2087c1" opacity="1.00" d=" M 671.42 443.43 C 744.57 390.58 826.66 350.00 913.00 323.96 L 913.00 415.76 C 891.59 423.37 870.22 431.22 849.52 440.60 C 845.99 442.08 843.34 444.92 840.16 446.93 C 815.28 458.75 790.79 471.55 767.63 486.53 C 759.31 491.46 750.73 496.04 743.28 502.26 C 735.91 508.01 727.20 511.83 720.34 518.27 C 708.20 527.02 696.11 535.90 685.08 546.04 C 644.68 578.45 609.27 616.57 576.76 656.79 C 565.96 672.30 553.53 686.63 543.86 702.94 C 538.45 711.24 532.04 718.93 527.89 728.01 C 505.41 764.23 487.01 802.86 471.29 842.45 C 463.26 865.71 453.24 888.58 449.34 913.00 L 363.69 913.00 C 367.94 888.94 372.48 864.87 379.24 841.37 C 395.01 786.95 420.29 735.77 449.09 687.16 C 458.02 671.23 469.00 656.56 477.42 640.35 C 488.36 625.66 499.74 611.27 510.34 596.32 C 523.51 581.80 535.56 566.30 549.05 552.06 C 570.41 526.79 595.94 505.62 619.97 483.02 C 637.14 469.86 653.73 455.92 671.42 443.43 Z" />
</g>
<g id="#664892ff">
<path fill="#664892" opacity="1.00" d=" M 849.52 440.60 C 870.22 431.22 891.59 423.37 913.00 415.76 L 913.00 490.96 C 908.04 494.08 902.42 495.87 896.99 497.98 C 787.48 543.33 690.69 618.95 620.56 714.54 C 606.51 732.60 593.79 751.73 582.73 771.76 C 561.38 806.99 544.09 844.60 530.28 883.37 C 526.09 892.83 523.85 902.98 521.40 913.00 L 449.34 913.00 C 453.24 888.58 463.26 865.71 471.29 842.45 C 487.01 802.86 505.41 764.23 527.89 728.01 C 532.04 718.93 538.45 711.24 543.86 702.94 C 553.53 686.63 565.96 672.30 576.76 656.79 C 609.27 616.57 644.68 578.45 685.08 546.04 C 696.11 535.90 708.20 527.02 720.34 518.27 C 727.20 511.83 735.91 508.01 743.28 502.26 C 750.73 496.04 759.31 491.46 767.63 486.53 C 790.79 471.55 815.28 458.75 840.16 446.93 C 843.34 444.92 845.99 442.08 849.52 440.60 Z" />
</g>
<g id="#ac4b98ff">
<path fill="#ac4b98" opacity="1.00" d=" M 896.99 497.98 C 902.42 495.87 908.04 494.08 913.00 490.96 L 913.00 586.45 C 879.83 601.28 848.34 619.75 818.72 640.75 C 813.76 644.91 808.67 648.90 803.15 652.30 C 788.82 662.75 775.90 674.94 762.30 686.30 C 754.46 692.80 748.73 701.39 740.91 707.92 C 731.23 715.93 723.68 726.01 715.23 735.22 C 673.02 784.63 639.03 841.19 616.23 902.10 C 614.80 905.76 613.42 909.45 611.69 913.00 L 521.40 913.00 C 523.85 902.98 526.09 892.83 530.28 883.37 C 544.09 844.60 561.38 806.99 582.73 771.76 C 593.79 751.73 606.51 732.60 620.56 714.54 C 690.69 618.95 787.48 543.33 896.99 497.98 Z" />
</g>
</svg>
